<svg width="112" height="86" viewBox="0 0 112 86" fill="none" xmlns="http://www.w3.org/2000/svg">
<rect x="2" y="2" width="108" height="82" fill="white" stroke="#7A9FC9" stroke-width="4"/>
<path d="M11.728 17.008H17.344C18.704 17.008 19.992 17.16 21.208 17.464C22.44 17.768 23.512 18.264 24.424 18.952C25.336 19.624 26.056 20.504 26.584 21.592C27.128 22.68 27.4 24 27.4 25.552C27.4 26.928 27.136 28.144 26.608 29.2C26.096 30.24 25.4 31.12 24.52 31.84C23.64 32.544 22.624 33.08 21.472 33.448C20.32 33.816 19.112 34 17.848 34H11.728V17.008ZM15.472 30.544H17.416C18.28 30.544 19.08 30.456 19.816 30.28C20.568 30.104 21.216 29.816 21.76 29.416C22.304 29 22.728 28.464 23.032 27.808C23.352 27.136 23.512 26.32 23.512 25.36C23.512 24.528 23.352 23.808 23.032 23.2C22.728 22.576 22.312 22.064 21.784 21.664C21.256 21.264 20.632 20.968 19.912 20.776C19.208 20.568 18.464 20.464 17.68 20.464H15.472V30.544ZM33.0829 15.856V23.92H33.1309C33.2109 23.696 33.3469 23.472 33.5389 23.248C33.7309 23.024 33.9629 22.824 34.2349 22.648C34.5069 22.472 34.8269 22.328 35.1949 22.216C35.5629 22.104 35.9629 22.048 36.3949 22.048C37.3069 22.048 38.0429 22.192 38.6029 22.48C39.1629 22.752 39.5949 23.136 39.8989 23.632C40.2189 24.128 40.4349 24.712 40.5469 25.384C40.6589 26.056 40.7149 26.784 40.7149 27.568V34H37.1149V28.288C37.1149 27.952 37.0989 27.608 37.0669 27.256C37.0509 26.888 36.9789 26.552 36.8509 26.248C36.7389 25.944 36.5549 25.696 36.2989 25.504C36.0589 25.312 35.7069 25.216 35.2429 25.216C34.7789 25.216 34.4029 25.304 34.1149 25.48C33.8269 25.64 33.6029 25.864 33.4429 26.152C33.2989 26.424 33.2029 26.736 33.1549 27.088C33.1069 27.44 33.0829 27.808 33.0829 28.192V34H29.4829V15.856H33.0829ZM49.9842 35.896C49.7442 36.52 49.5122 37.072 49.2882 37.552C49.0642 38.032 48.7762 38.432 48.4242 38.752C48.0882 39.088 47.6562 39.336 47.1282 39.496C46.6002 39.672 45.9042 39.76 45.0402 39.76C44.1122 39.76 43.2162 39.616 42.3522 39.328L42.8322 36.376C43.3762 36.616 43.9362 36.736 44.5122 36.736C44.9122 36.736 45.2402 36.688 45.4962 36.592C45.7522 36.512 45.9602 36.384 46.1202 36.208C46.2962 36.048 46.4402 35.848 46.5522 35.608C46.6642 35.368 46.7842 35.088 46.9122 34.768L47.1762 34.096L42.0642 22.336H45.9522L48.9522 30.04H49.0002L51.5682 22.336H55.2642L49.9842 35.896ZM63.9201 32.536H63.8721C63.4721 33.16 62.9361 33.608 62.2641 33.88C61.6081 34.152 60.9121 34.288 60.1761 34.288C59.6321 34.288 59.1041 34.208 58.5921 34.048C58.0961 33.904 57.6561 33.68 57.2721 33.376C56.8881 33.072 56.5841 32.696 56.3601 32.248C56.1361 31.8 56.0241 31.28 56.0241 30.688C56.0241 30.016 56.1441 29.448 56.3841 28.984C56.6401 28.52 56.9761 28.136 57.3921 27.832C57.8241 27.528 58.3121 27.296 58.8561 27.136C59.4001 26.96 59.9601 26.832 60.5361 26.752C61.1281 26.672 61.7121 26.624 62.2881 26.608C62.8801 26.592 63.4241 26.584 63.9201 26.584C63.9201 25.944 63.6881 25.44 63.2241 25.072C62.7761 24.688 62.2401 24.496 61.6161 24.496C61.0241 24.496 60.4801 24.624 59.9841 24.88C59.5041 25.12 59.0721 25.456 58.6881 25.888L56.7681 23.92C57.4401 23.296 58.2241 22.832 59.1201 22.528C60.0161 22.208 60.9441 22.048 61.9041 22.048C62.9601 22.048 63.8241 22.184 64.4961 22.456C65.1841 22.712 65.7281 23.096 66.1281 23.608C66.5441 24.12 66.8321 24.752 66.9921 25.504C67.1521 26.24 67.2321 27.096 67.2321 28.072V34H63.9201V32.536ZM63.0321 28.888C62.7601 28.888 62.4161 28.904 62.0001 28.936C61.6001 28.952 61.2081 29.016 60.8241 29.128C60.4561 29.24 60.1361 29.408 59.8641 29.632C59.6081 29.856 59.4801 30.168 59.4801 30.568C59.4801 31 59.6641 31.32 60.0321 31.528C60.4001 31.736 60.7841 31.84 61.1841 31.84C61.5361 31.84 61.8721 31.792 62.1921 31.696C62.5281 31.6 62.8241 31.464 63.0801 31.288C63.3361 31.112 63.5361 30.888 63.6801 30.616C63.8401 30.344 63.9201 30.024 63.9201 29.656V28.888H63.0321ZM69.4908 22.336H72.9468V23.92H72.9948C73.1068 23.696 73.2668 23.472 73.4748 23.248C73.6828 23.024 73.9308 22.824 74.2188 22.648C74.5068 22.472 74.8348 22.328 75.2028 22.216C75.5708 22.104 75.9708 22.048 76.4028 22.048C77.3148 22.048 78.0508 22.192 78.6108 22.48C79.1708 22.752 79.6028 23.136 79.9068 23.632C80.2268 24.128 80.4428 24.712 80.5547 25.384C80.6668 26.056 80.7228 26.784 80.7228 27.568V34H77.1228V28.288C77.1228 27.952 77.1068 27.608 77.0748 27.256C77.0588 26.888 76.9868 26.552 76.8588 26.248C76.7468 25.944 76.5628 25.696 76.3068 25.504C76.0668 25.312 75.7148 25.216 75.2508 25.216C74.7868 25.216 74.4108 25.304 74.1228 25.48C73.8348 25.64 73.6108 25.864 73.4508 26.152C73.3068 26.424 73.2108 26.736 73.1628 27.088C73.1148 27.44 73.0908 27.808 73.0908 28.192V34H69.4908V22.336ZM90.592 32.536H90.544C90.144 33.16 89.608 33.608 88.936 33.88C88.28 34.152 87.584 34.288 86.848 34.288C86.304 34.288 85.776 34.208 85.264 34.048C84.768 33.904 84.328 33.68 83.944 33.376C83.56 33.072 83.256 32.696 83.032 32.248C82.808 31.8 82.696 31.28 82.696 30.688C82.696 30.016 82.816 29.448 83.056 28.984C83.312 28.52 83.648 28.136 84.064 27.832C84.496 27.528 84.984 27.296 85.528 27.136C86.072 26.96 86.632 26.832 87.208 26.752C87.8 26.672 88.384 26.624 88.96 26.608C89.552 26.592 90.096 26.584 90.592 26.584C90.592 25.944 90.36 25.44 89.896 25.072C89.448 24.688 88.912 24.496 88.288 24.496C87.696 24.496 87.152 24.624 86.656 24.88C86.176 25.12 85.744 25.456 85.36 25.888L83.44 23.92C84.112 23.296 84.896 22.832 85.792 22.528C86.688 22.208 87.616 22.048 88.576 22.048C89.632 22.048 90.496 22.184 91.168 22.456C91.856 22.712 92.4 23.096 92.8 23.608C93.216 24.12 93.504 24.752 93.664 25.504C93.824 26.24 93.904 27.096 93.904 28.072V34H90.592V32.536ZM89.704 28.888C89.432 28.888 89.088 28.904 88.672 28.936C88.272 28.952 87.88 29.016 87.496 29.128C87.128 29.24 86.808 29.408 86.536 29.632C86.28 29.856 86.152 30.168 86.152 30.568C86.152 31 86.336 31.32 86.704 31.528C87.072 31.736 87.456 31.84 87.856 31.84C88.208 31.84 88.544 31.792 88.864 31.696C89.2 31.6 89.496 31.464 89.752 31.288C90.008 31.112 90.208 30.888 90.352 30.616C90.512 30.344 90.592 30.024 90.592 29.656V28.888H89.704ZM22.84 54.424C22.472 53.976 22.016 53.632 21.472 53.392C20.944 53.152 20.328 53.032 19.624 53.032C18.92 53.032 18.264 53.168 17.656 53.44C17.064 53.712 16.544 54.096 16.096 54.592C15.664 55.072 15.32 55.648 15.064 56.32C14.824 56.992 14.704 57.72 14.704 58.504C14.704 59.304 14.824 60.04 15.064 60.712C15.32 61.368 15.664 61.944 16.096 62.44C16.528 62.92 17.032 63.296 17.608 63.568C18.2 63.84 18.832 63.976 19.504 63.976C20.272 63.976 20.952 63.816 21.544 63.496C22.136 63.176 22.624 62.728 23.008 62.152L26.128 64.48C25.408 65.488 24.496 66.232 23.392 66.712C22.288 67.192 21.152 67.432 19.984 67.432C18.656 67.432 17.432 67.224 16.312 66.808C15.192 66.392 14.224 65.8 13.408 65.032C12.592 64.248 11.952 63.304 11.488 62.2C11.04 61.096 10.816 59.864 10.816 58.504C10.816 57.144 11.04 55.912 11.488 54.808C11.952 53.704 12.592 52.768 13.408 52C14.224 51.216 15.192 50.616 16.312 50.2C17.432 49.784 18.656 49.576 19.984 49.576C20.464 49.576 20.96 49.624 21.472 49.72C22 49.8 22.512 49.936 23.008 50.128C23.52 50.32 24.008 50.576 24.472 50.896C24.936 51.216 25.352 51.608 25.72 52.072L22.84 54.424ZM35.0217 65.536H34.9737C34.5737 66.16 34.0377 66.608 33.3657 66.88C32.7097 67.152 32.0137 67.288 31.2777 67.288C30.7337 67.288 30.2057 67.208 29.6937 67.048C29.1977 66.904 28.7577 66.68 28.3737 66.376C27.9897 66.072 27.6857 65.696 27.4617 65.248C27.2377 64.8 27.1257 64.28 27.1257 63.688C27.1257 63.016 27.2457 62.448 27.4857 61.984C27.7417 61.52 28.0777 61.136 28.4937 60.832C28.9257 60.528 29.4137 60.296 29.9577 60.136C30.5017 59.96 31.0617 59.832 31.6377 59.752C32.2297 59.672 32.8137 59.624 33.3897 59.608C33.9817 59.592 34.5257 59.584 35.0217 59.584C35.0217 58.944 34.7897 58.44 34.3257 58.072C33.8777 57.688 33.3417 57.496 32.7177 57.496C32.1257 57.496 31.5817 57.624 31.0857 57.88C30.6057 58.12 30.1737 58.456 29.7897 58.888L27.8697 56.92C28.5417 56.296 29.3257 55.832 30.2217 55.528C31.1177 55.208 32.0457 55.048 33.0057 55.048C34.0617 55.048 34.9257 55.184 35.5977 55.456C36.2857 55.712 36.8297 56.096 37.2297 56.608C37.6457 57.12 37.9337 57.752 38.0937 58.504C38.2537 59.24 38.3337 60.096 38.3337 61.072V67H35.0217V65.536ZM34.1337 61.888C33.8617 61.888 33.5177 61.904 33.1017 61.936C32.7017 61.952 32.3097 62.016 31.9257 62.128C31.5577 62.24 31.2377 62.408 30.9657 62.632C30.7097 62.856 30.5817 63.168 30.5817 63.568C30.5817 64 30.7657 64.32 31.1337 64.528C31.5017 64.736 31.8857 64.84 32.2857 64.84C32.6377 64.84 32.9737 64.792 33.2937 64.696C33.6297 64.6 33.9257 64.464 34.1817 64.288C34.4377 64.112 34.6377 63.888 34.7817 63.616C34.9417 63.344 35.0217 63.024 35.0217 62.656V61.888H34.1337ZM40.9283 55.336H44.2403V56.872H44.2883C44.4323 56.664 44.6163 56.456 44.8403 56.248C45.0803 56.024 45.3523 55.824 45.6563 55.648C45.9763 55.472 46.3203 55.328 46.6883 55.216C47.0563 55.104 47.4483 55.048 47.8643 55.048C48.7283 55.048 49.5123 55.2 50.2163 55.504C50.9203 55.792 51.5203 56.208 52.0163 56.752C52.5283 57.28 52.9203 57.912 53.1923 58.648C53.4643 59.384 53.6003 60.192 53.6003 61.072C53.6003 61.888 53.4723 62.672 53.2163 63.424C52.9763 64.16 52.6243 64.816 52.1603 65.392C51.7123 65.968 51.1603 66.432 50.5043 66.784C49.8483 67.12 49.1043 67.288 48.2723 67.288C47.5203 67.288 46.8163 67.176 46.1603 66.952C45.5203 66.712 44.9923 66.312 44.5763 65.752H44.5283V72.472H40.9283V55.336ZM44.2403 61.168C44.2403 62.048 44.4883 62.76 44.9843 63.304C45.4963 63.848 46.2083 64.12 47.1203 64.12C48.0323 64.12 48.7363 63.848 49.2323 63.304C49.7443 62.76 50.0003 62.048 50.0003 61.168C50.0003 60.288 49.7443 59.576 49.2323 59.032C48.7363 58.488 48.0323 58.216 47.1203 58.216C46.2083 58.216 45.4963 58.488 44.9843 59.032C44.4883 59.576 44.2403 60.288 44.2403 61.168ZM55.7575 55.336H59.3575V67H55.7575V55.336ZM55.4695 51.664C55.4695 51.088 55.6695 50.6 56.0695 50.2C56.4855 49.784 56.9815 49.576 57.5575 49.576C58.1335 49.576 58.6215 49.784 59.0215 50.2C59.4375 50.6 59.6455 51.088 59.6455 51.664C59.6455 52.24 59.4375 52.736 59.0215 53.152C58.6215 53.552 58.1335 53.752 57.5575 53.752C56.9815 53.752 56.4855 53.552 56.0695 53.152C55.6695 52.736 55.4695 52.24 55.4695 51.664ZM69.8879 58.216H66.7199V62.104C66.7199 62.424 66.7359 62.72 66.7679 62.992C66.7999 63.248 66.8719 63.472 66.9839 63.664C67.0959 63.856 67.2639 64.008 67.4879 64.12C67.7279 64.216 68.0399 64.264 68.4239 64.264C68.6159 64.264 68.8639 64.248 69.1679 64.216C69.4879 64.168 69.7279 64.072 69.8879 63.928V66.928C69.4879 67.072 69.0719 67.168 68.6399 67.216C68.2079 67.264 67.7839 67.288 67.3679 67.288C66.7599 67.288 66.1999 67.224 65.6879 67.096C65.1759 66.968 64.7279 66.768 64.3439 66.496C63.9599 66.208 63.6559 65.84 63.4319 65.392C63.2239 64.944 63.1199 64.4 63.1199 63.76V58.216H60.8159V55.336H63.1199V51.88H66.7199V55.336H69.8879V58.216ZM79.0373 65.536H78.9893C78.5893 66.16 78.0533 66.608 77.3813 66.88C76.7253 67.152 76.0293 67.288 75.2933 67.288C74.7493 67.288 74.2213 67.208 73.7093 67.048C73.2133 66.904 72.7733 66.68 72.3893 66.376C72.0053 66.072 71.7013 65.696 71.4773 65.248C71.2533 64.8 71.1413 64.28 71.1413 63.688C71.1413 63.016 71.2613 62.448 71.5013 61.984C71.7573 61.52 72.0933 61.136 72.5093 60.832C72.9413 60.528 73.4293 60.296 73.9733 60.136C74.5173 59.96 75.0773 59.832 75.6533 59.752C76.2453 59.672 76.8293 59.624 77.4053 59.608C77.9973 59.592 78.5413 59.584 79.0373 59.584C79.0373 58.944 78.8053 58.44 78.3413 58.072C77.8933 57.688 77.3573 57.496 76.7333 57.496C76.1413 57.496 75.5973 57.624 75.1013 57.88C74.6213 58.12 74.1893 58.456 73.8053 58.888L71.8853 56.92C72.5573 56.296 73.3413 55.832 74.2373 55.528C75.1333 55.208 76.0613 55.048 77.0213 55.048C78.0773 55.048 78.9413 55.184 79.6133 55.456C80.3013 55.712 80.8453 56.096 81.2453 56.608C81.6613 57.12 81.9493 57.752 82.1093 58.504C82.2693 59.24 82.3493 60.096 82.3493 61.072V67H79.0373V65.536ZM78.1493 61.888C77.8773 61.888 77.5333 61.904 77.1173 61.936C76.7173 61.952 76.3253 62.016 75.9413 62.128C75.5733 62.24 75.2533 62.408 74.9813 62.632C74.7253 62.856 74.5973 63.168 74.5973 63.568C74.5973 64 74.7813 64.32 75.1493 64.528C75.5173 64.736 75.9013 64.84 76.3013 64.84C76.6533 64.84 76.9893 64.792 77.3093 64.696C77.6453 64.6 77.9413 64.464 78.1973 64.288C78.4533 64.112 78.6533 63.888 78.7973 63.616C78.9573 63.344 79.0373 63.024 79.0373 62.656V61.888H78.1493ZM84.6559 48.856H88.2559V67H84.6559V48.856ZM90.9143 64.936C90.9143 64.632 90.9703 64.344 91.0823 64.072C91.1943 63.8 91.3463 63.568 91.5383 63.376C91.7463 63.168 91.9863 63.008 92.2583 62.896C92.5303 62.784 92.8183 62.728 93.1223 62.728C93.4263 62.728 93.7143 62.784 93.9863 62.896C94.2583 63.008 94.4903 63.168 94.6823 63.376C94.8903 63.568 95.0503 63.8 95.1623 64.072C95.2743 64.344 95.3303 64.632 95.3303 64.936C95.3303 65.24 95.2743 65.528 95.1623 65.8C95.0503 66.072 94.8903 66.312 94.6823 66.52C94.4903 66.712 94.2583 66.864 93.9863 66.976C93.7143 67.088 93.4263 67.144 93.1223 67.144C92.8183 67.144 92.5303 67.088 92.2583 66.976C91.9863 66.864 91.7463 66.712 91.5383 66.52C91.3463 66.312 91.1943 66.072 91.0823 65.8C90.9703 65.528 90.9143 65.24 90.9143 64.936Z" fill="#7A9FC9"/>
</svg>
